<svg width="1132" height="886" viewBox="0 0 1132 886" fill="none" xmlns="http://www.w3.org/2000/svg">
<path d="M417.6 687V675.45L471.5 653.45L630.45 236H639.25L789.4 667.2L840 675.45V687H678.3V675.45L723.4 668.3L676.65 537.95H530.35L485.8 653.45L535.3 675.45V687H417.6ZM534.75 526.4H672.8L606.8 332.8L534.75 526.4ZM923.17 692.5C899.704 692.5 880.454 686.45 865.42 674.35C850.387 661.883 842.87 643.55 842.87 619.35C842.87 584.883 857.354 560.5 886.32 546.2C915.287 531.533 948.837 524.2 986.97 524.2H1023.82V481.85C1023.82 462.783 1021.62 448.117 1017.22 437.85C1013.19 427.217 1006.77 419.883 997.97 415.85C989.17 411.45 977.254 409.25 962.22 409.25C944.987 409.25 932.154 412.733 923.72 419.7C915.287 426.3 911.07 435.283 911.07 446.65C911.07 457.283 916.204 464.25 926.47 467.55C926.47 476.717 922.987 484.783 916.02 491.75C909.054 498.717 900.804 502.2 891.27 502.2C881.004 502.2 872.754 499.45 866.52 493.95C860.287 488.083 857.17 479.283 857.17 467.55C857.17 446.283 867.804 429.233 889.07 416.4C910.337 403.567 936.92 397.15 968.82 397.15C1042.15 397.15 1078.82 429.05 1078.82 492.85V650.15C1078.82 658.217 1080.47 664.45 1083.77 668.85C1087.44 672.883 1092.57 674.9 1099.17 674.9C1105.4 674.9 1110.35 672.883 1114.02 668.85C1117.69 664.45 1119.52 658.583 1119.52 651.25H1131.07C1131.07 664.083 1126.85 674.167 1118.42 681.5C1110.35 688.833 1098.99 692.5 1084.32 692.5C1067.45 692.5 1053.15 687.733 1041.42 678.2C1030.05 668.3 1024.19 653.083 1023.82 632.55C1015.02 651.25 1001.45 665.917 983.12 676.55C965.154 687.183 945.17 692.5 923.17 692.5ZM953.42 668.3C963.32 668.3 973.404 665.367 983.67 659.5C994.304 653.633 1003.29 645.2 1010.62 634.2C1017.95 622.833 1022.35 609.267 1023.82 593.5V536.3H986.97C956.904 536.3 934.354 543.083 919.32 556.65C904.654 569.85 897.32 588.55 897.32 612.75C897.32 632.917 902.087 647.217 911.62 655.65C921.154 664.083 935.087 668.3 953.42 668.3Z" fill="black"/>
<line x1="495.066" y1="553.677" x2="337.15" y2="298.526" stroke="black" stroke-width="2"/>
<line x1="627.397" y1="517.798" x2="336.971" y2="298.325" stroke="black" stroke-width="2"/>
<circle cx="542.5" cy="590.5" r="56" stroke="black" stroke-width="5" stroke-dasharray="30 30"/>
<circle cx="699" cy="532" r="74.5" stroke="black" stroke-width="5" stroke-dasharray="30 30"/>
<path d="M875.059 227.572L866.789 244.794L870.079 228.026L889.535 193.616L896.365 174.919L899.897 180.622L906.302 161.662L927.51 145.368L975.125 122.449L969.089 132.238L1026.31 94.685L1027.85 102.679L1037.68 90.5352L1048.34 81.8316L1045.48 91.2301L1052.37 81.9663L1064.96 69.17L1062.85 80.2069L1071.71 63.9351L1091.47 53.7984L1086.5 81.8659L1077.45 92.7328L1086.62 93.1014L1076.97 110.65L1061.82 129.504L1047.99 138.598C1048.97 140.182 1051.02 143.402 1051.36 143.612C1051.7 143.822 1034.63 158.359 1026.05 165.602L1006.73 168.369L1012.16 172.894L960.586 189.848L969.523 195.359L923.263 205.603L910.623 201.333L911.304 208.802L899.877 203.518L909.353 192.914L928.496 177.11L1014.68 134.506L1034.32 113.134L1011.9 130.442L925.553 172.357L906.146 188.587L875.059 227.572Z" stroke="black" stroke-width="2"/>
<path d="M1 687V416H44V687H1Z" fill="black" stroke="black" stroke-width="2"/>
<path d="M79 687V416H90V687H79Z" fill="black" stroke="black" stroke-width="2"/>
</svg>
