<svg width="1370" height="2956" viewBox="0 0 1370 2956" fill="none" xmlns="http://www.w3.org/2000/svg">
<circle cx="1311.5" cy="664.5" r="56" stroke="black" stroke-width="5" stroke-dasharray="30 30"/>
<circle cx="714" cy="491" r="242.5" stroke="black" stroke-width="5" stroke-dasharray="30 30"/>
<circle cx="58.5" cy="1328.5" r="56" stroke="black" stroke-width="5" stroke-dasharray="30 30"/>
<circle cx="348.5" cy="58.5" r="56" stroke="black" stroke-width="5" stroke-dasharray="30 30"/>
<circle cx="534.5" cy="1808.5" r="336" stroke="black" stroke-width="5" stroke-dasharray="30 30"/>
<circle cx="1017.5" cy="2186.5" r="56" stroke="black" stroke-width="5" stroke-dasharray="30 30"/>
<rect x="60.5" y="68.5" width="576" height="778" fill="white" stroke="black" stroke-width="5"/>
<rect x="729.5" y="1419.5" width="576" height="778" fill="white" stroke="black" stroke-width="5"/>
<rect x="729.5" y="548.5" width="576" height="778" fill="white" stroke="black" stroke-width="5"/>
<rect x="60.5" y="939.5" width="576" height="778" fill="white" stroke="black" stroke-width="5"/>
<path d="M201.5 617.5L215.5 592L223 600L233.5 601L257 588.5L284 549V534C283.5 533.333 280.5 530.9 272.5 526.5V524C272.833 522.833 274.9 520.1 280.5 518.5C281.3 518.5 285.5 506.833 287.5 501L318 457L354.5 444.5L395.5 454.5L476.5 340.5L463.5 332.5C463 332.333 461.3 332.3 458.5 333.5C458.5 334 446.5 325.5 446 325.5C445.6 325.5 446.833 320.833 447.5 318.5L452 315L467 322L466 325.5L481 334.5L492.5 320L480 312.5L476 315L464 304C464.167 302.167 464.6 298.5 465 298.5C465.4 298.5 468.5 297.167 470 296.5L482 301.5L483.5 306L497.5 315L510.5 303.5L507 301.5L510.5 296.5L507 293L509 290.5L507.5 288.5C507.333 288.167 507.9 286.4 511.5 282L516 284.5C517.833 282.833 522.1 279.8 524.5 281C524.5 280.6 529.167 276.833 531.5 275L540 280.5L537.5 289.5C538.333 290.167 539.5 292.5 537.5 296.5L544 301.5L540 307C539.667 307 538.5 307.5 536.5 309.5L531.5 308.5L523.5 319L537.5 326.5L541.5 325.5L553.5 334.5L552.5 340L547 343.5L534.5 338.5C534.333 338.333 533.8 337 533 333L520.5 326.5L510.5 338L525.5 346.5L531.5 343.5L539 348L541.5 357L534.5 365.5H526.5L521.5 360C521.333 358.167 521.1 354.4 521.5 354C521.9 353.6 511.333 348.167 506 345.5L499 358.5L492.5 365.5L486 367.5L422.5 471L424 472.5L437 486.5L452.5 513V556.5L415.5 601V612.5L410.5 615C408 612.667 403 607.8 403 607C403 606.2 391.333 610.333 385.5 612.5L359 652V683.5L373 691V698L365.5 701C363.667 706 356.9 724.9 344.5 760.5C344.9 760.5 324.667 779.833 314.5 789.5L274.5 796C262.667 792.333 239.2 785.2 240 786C240.8 786.8 205.333 765.667 187.5 755C178.5 742.5 160.1 717.2 158.5 716C156.5 714.5 153 677.5 153 676.5C153 675.5 168 642 168 643C168 643.8 190.333 626.333 201.5 617.5Z" stroke="black" stroke-width="2"/>
<path d="M1061.5 1262.5L1063.5 1281.5L1057.5 1265.5L1056 1226L1052 1206.5L1058 1209.5L1053.5 1190L1063 1165L1091.5 1120.5V1132L1120.5 1070L1126 1076L1128 1060.5L1132.5 1047.5L1135 1057L1136 1045.5L1140 1028L1144 1038.5L1143 1020L1154.5 1001L1165 1027.5L1163 1041.5L1171 1037L1172 1057L1169 1081L1162 1096C1163.67 1096.83 1167.1 1098.5 1167.5 1098.5C1167.9 1098.5 1161 1119.83 1157.5 1130.5L1142.5 1143L1149.5 1144L1114.5 1185.5H1125L1091 1218.5L1078 1221.5L1082.5 1227.5L1070 1229L1072.5 1215L1080.5 1191.5L1131.5 1110L1137 1081.5L1127 1108L1075.5 1189L1067.5 1213L1061.5 1262.5Z" fill="black" stroke="black" stroke-width="2"/>
<path d="M144 1317V944H213V1317H144Z" stroke="black" stroke-width="2"/>
<path d="M480 1317V944H549V1317H480Z" stroke="black" stroke-width="2"/>
<path d="M256 1317V944H325V1317H256Z" stroke="black" stroke-width="2"/>
<path d="M368 1317V944H437V1317H368Z" stroke="black" stroke-width="2"/>
<path d="M213 1232V944H256V1232H213Z" fill="black" stroke="black" stroke-width="2"/>
<path d="M437 1232V944H480V1232H437Z" fill="black" stroke="black" stroke-width="2"/>
<path d="M325 1232V944H368V1232H325Z" fill="black" stroke="black" stroke-width="2"/>
<path d="M1050.89 1700.01L1071 1697.27L1060.03 1720.99L904.158 1742.89L899.587 1865.61L904.158 1867.89L902.329 2052.2L956.724 2126.56L952.153 2133.4L902.329 2102.38L905.986 2148C900.044 2148 888.068 2148 887.702 2148C887.336 2148 885.416 2117.59 884.502 2102.38L832.392 2141.16L817.308 2130.21L879.017 2052.2L881.302 1867.89L885.873 1865.61L889.073 1745.17L770.684 1767.53L766.113 1748.36L776.626 1745.17L746 1560.41L1019.8 1523L1025 1557L1039.46 1558.58M1050.89 1700.01L1039.46 1558.58M1050.89 1700.01L1028.49 1703.72M1039.46 1558.58L1001.98 1554.48L955.353 1558.58L911.014 1570.9M799.481 1742.89L799.332 1741.67M911.014 1570.9C909.643 1571.81 898.764 1572.54 866.218 1568.16C865.852 1568.16 835.897 1576.68 820.965 1580.94L792.624 1601.92L782.568 1604.2L799.332 1741.67M911.014 1570.9L929.755 1720.07M778.183 1745.17L799.332 1741.67M799.332 1741.67L833.764 1726.01L860.733 1716.43L909.643 1717.8L929.755 1720.07M799.332 1741.67L929.755 1720.07M929.755 1720.07L955.353 1707.76L985.522 1700.01L1028.49 1703.72M929.755 1720.07L1028.49 1703.72M810.451 1622.45L844.734 1604.2L889.073 1598.73M815.023 1630.66L849.305 1612.42L893.644 1606.94M816.851 1637.51L851.134 1619.26L895.473 1613.78M819.594 1646.18L853.876 1627.93L898.215 1622.45M816.851 1674L851.134 1655.76L895.473 1650.28M819.594 1680.85L853.876 1662.6L898.215 1657.12M820.965 1689.51L855.248 1671.27L899.587 1665.79M822.793 1694.99L857.076 1676.74L901.415 1671.27M935.241 1589.15L970.437 1579.11L1011.12 1580.94M937.526 1604.2L972.723 1594.17L1013.41 1595.99M935.241 1595.99L970.437 1585.96L1011.12 1587.78M940.726 1611.96L975.923 1601.92L1016.6 1603.75M937.526 1648.91L972.723 1638.88L1013.41 1640.7M937.526 1658.49L972.723 1648.46L1013.41 1650.28M940.726 1665.34L975.923 1655.3L1016.6 1657.12M942.097 1673.55L977.294 1663.51L1017.98 1665.34" stroke="black" stroke-width="2"/>
<circle cx="394" cy="2603" r="352" fill="black" stroke="black" stroke-width="2"/>
<circle cx="888.747" cy="2697.13" r="257.867" fill="white" stroke="black" stroke-width="2"/>
<circle cx="393.453" cy="2603.55" r="116.025" fill="white"/>
<circle cx="888.747" cy="2697.13" r="77.1674" fill="black"/>
<circle cx="393.453" cy="2603.55" r="16.4186" fill="black"/>
<circle cx="889.294" cy="2697.68" r="16.4186" fill="white"/>
<path d="M257.726 2557.03C286.184 2494.64 298.225 2486.43 350.217 2468.92" stroke="white" stroke-width="2"/>
<path d="M240.212 2554.29C263.199 2479.86 289.043 2468.37 356.237 2447.57" stroke="white" stroke-width="2"/>
<path d="M166.745 2553.74C217.095 2440.46 226.947 2435.53 303.698 2392.29" stroke="white" stroke-width="2"/>
<path d="M150.457 2533.49C209.537 2394.48 219.416 2414.19 318.474 2360.55" stroke="white" stroke-width="2"/>
<path d="M112.147 2540.06C171.227 2401.05 161.376 2415.28 290.536 2346.32" stroke="white" stroke-width="2"/>
<path d="M90.255 2521.45C149.336 2382.44 139.485 2396.67 268.644 2327.71" stroke="white" stroke-width="2"/>
<path d="M199.713 2532.95C234.125 2451.4 263.131 2437.72 341.46 2409.81" stroke="white" stroke-width="2"/>
<path d="M213.395 2564.14C235.287 2485.33 278.522 2453.59 331.609 2434.98" stroke="white" stroke-width="2"/>
<path d="M532.786 2651.16C504.327 2713.55 492.287 2721.76 440.295 2739.27" stroke="white" stroke-width="2"/>
<path d="M550.299 2653.9C527.313 2728.33 501.469 2739.82 434.275 2760.62" stroke="white" stroke-width="2"/>
<path d="M623.767 2654.45C573.416 2767.73 563.565 2772.66 486.814 2815.9" stroke="white" stroke-width="2"/>
<path d="M640.055 2674.69C580.974 2813.7 571.096 2794 472.037 2847.64" stroke="white" stroke-width="2"/>
<path d="M678.365 2668.13C619.284 2807.14 629.136 2792.91 499.976 2861.87" stroke="white" stroke-width="2"/>
<path d="M700.257 2686.73C641.176 2825.74 651.027 2811.52 521.867 2880.47" stroke="white" stroke-width="2"/>
<path d="M590.799 2675.24C556.387 2756.79 527.381 2770.47 449.051 2798.38" stroke="white" stroke-width="2"/>
<path d="M577.116 2644.05C555.225 2722.86 511.989 2754.6 458.902 2773.21" stroke="white" stroke-width="2"/>
<path d="M979.643 2721.92C957.12 2771.3 947.591 2777.79 906.442 2791.65" stroke="black" stroke-width="2"/>
<path d="M993.504 2724.08C975.312 2782.99 954.858 2792.09 901.678 2808.55" stroke="black" stroke-width="2"/>
<path d="M1051.65 2724.52C1011.8 2814.18 1004 2818.08 943.259 2852.29" stroke="black" stroke-width="2"/>
<path d="M1064.54 2740.54C1017.78 2850.56 1009.96 2834.97 931.565 2877.42" stroke="black" stroke-width="2"/>
<path d="M1094.86 2735.35C1048.1 2845.36 1055.9 2834.1 953.676 2888.68" stroke="black" stroke-width="2"/>
<path d="M1112.18 2750.07C1065.43 2860.09 1073.22 2848.83 971.002 2903.41" stroke="black" stroke-width="2"/>
<path d="M1025.56 2740.98C998.322 2805.51 975.365 2816.34 913.373 2838.43" stroke="black" stroke-width="2"/>
<path d="M1014.73 2716.29C997.402 2778.66 963.184 2803.78 921.169 2818.51" stroke="black" stroke-width="2"/>
<path d="M798.946 2681.05C821.469 2631.67 830.999 2625.17 872.147 2611.31" stroke="black" stroke-width="2"/>
<path d="M785.086 2678.88C803.278 2619.98 823.732 2610.88 876.912 2594.42" stroke="black" stroke-width="2"/>
<path d="M726.941 2678.45C766.79 2588.79 774.587 2584.89 835.33 2550.67" stroke="black" stroke-width="2"/>
<path d="M714.05 2662.42C760.808 2552.41 768.626 2568 847.025 2525.55" stroke="black" stroke-width="2"/>
<path d="M683.73 2667.62C730.489 2557.6 722.692 2568.86 824.913 2514.29" stroke="black" stroke-width="2"/>
<path d="M666.405 2652.9C713.163 2542.88 705.367 2554.14 807.588 2499.56" stroke="black" stroke-width="2"/>
<path d="M753.033 2661.99C780.268 2597.45 803.224 2586.62 865.217 2564.53" stroke="black" stroke-width="2"/>
<path d="M763.862 2686.68C781.187 2624.31 815.405 2599.18 857.42 2584.46" stroke="black" stroke-width="2"/>
</svg>
