<svg width="634" height="477" viewBox="0 0 634 477" fill="none" xmlns="http://www.w3.org/2000/svg">
<path d="M133.5 156L141.5 172.5L154 179.5H168.5L179.5 172.5L187.5 162L190 150.5L187.5 139C183.333 135.167 175.1 127.5 175.5 127.5C176 127.5 160 122.5 160.5 123C160.9 123.4 152.667 125.167 148.5 126L136 139L133.5 156Z" stroke="black" stroke-width="2"/>
<path d="M71 182.5C71.4 182.5 66.5 178.5 64 176.5L49 172.5L38.5 176.5C35.8333 179.167 30.4 184.5 30 184.5C29.6 184.5 26.1667 193.833 24.5 198.5L26.5 210L33 218.5L38.5 223L49 226.5L61.5 223L71 218.5L76 208.5L78.5 198.5L76 189.5C74.1667 187.167 70.6 182.5 71 182.5Z" stroke="black" stroke-width="2"/>
<path d="M247.5 475.5H8L1 469V51H247.5M247.5 475.5L320 432V229L247.5 51M247.5 475.5V51M219.5 57.5L213.5 63.5L216.5 71.5L225 74L231.5 68.5V59.5L227 56L220.5 57.5M108 206.5L86.5 166.5L96.5 104.5L142 77L181 81.5L216.5 104.5L237.5 166.5L216.5 195.5L186.5 222L153 206.5H108ZM55.5 229H41L20 212.5V187L41 166.5H55.5L74.5 176.5L86.5 206.5L74.5 222L55.5 229ZM126.5 438L55.5 417L20 372.5L14.5 308L41 256.5L96.5 222L163.5 229L216.5 283.5L225.5 342L211 385.5L176.5 422.5L126.5 438ZM20 58V65.5L27.5 71.5L35.5 65.5V58H20Z" stroke="black" stroke-width="2"/>
<path d="M26.5 444L20 441.5L17.5 440L17 436L17.5 432L21.5 427L26.5 425.5L32.5 428.5L35.5 435L32.5 442L26.5 444Z" fill="white"/>
<path d="M215 430.5L214.5 435.5L217 441.5L223.5 444.5L228 442.5L232.5 438.5L232 431.5L227.5 427L220.5 426L215 430.5Z" fill="white"/>
<path d="M116 410.5L85.5 400.5L62 381L45.5 353.5L40.5 325.5L45.5 296L63.5 271.5L98 249.5L131.5 246.5L169.5 260.5L196 293.5L201 337.5L181 381L149 403.5L116 410.5Z" fill="white"/>
<path d="M26.5 444L20 441.5L17.5 440L17 436L17.5 432L21.5 427L26.5 425.5L32.5 428.5L35.5 435L32.5 442L26.5 444Z" stroke="black" stroke-width="2"/>
<path d="M215 430.5L214.5 435.5L217 441.5L223.5 444.5L228 442.5L232.5 438.5L232 431.5L227.5 427L220.5 426L215 430.5Z" stroke="black" stroke-width="2"/>
<path d="M116 410.5L85.5 400.5L62 381L45.5 353.5L40.5 325.5L45.5 296L63.5 271.5L98 249.5L131.5 246.5L169.5 260.5L196 293.5L201 337.5L181 381L149 403.5L116 410.5Z" stroke="black" stroke-width="2"/>
<path d="M541.26 73.9732L535.701 85.4475L527.015 90.3155H516.94L509.296 85.4475L503.737 78.1457L502 70.1484L503.737 62.1511C506.632 59.4853 512.353 54.1538 512.076 54.1538C511.728 54.1538 522.846 50.6767 522.498 51.0244C522.221 51.3026 527.942 52.5312 530.837 53.1107L539.523 62.1511L541.26 73.9732Z" stroke="black" stroke-width="2"/>
<path d="M584.689 92.4017C584.411 92.4017 587.816 89.62 589.553 88.2292L599.976 85.4475L607.272 88.2292C609.125 90.0836 612.9 93.7925 613.178 93.7925C613.456 93.7925 615.842 100.283 617 103.528L615.61 111.526L611.094 117.437L607.272 120.566L599.976 123L591.29 120.566L584.689 117.437L581.215 110.483L579.477 103.528L581.215 97.2696C582.488 95.647 584.967 92.4017 584.689 92.4017Z" stroke="black" stroke-width="2"/>
<path d="M462.227 296H628.15L633 291.483V1H462.227M462.227 296L412 265.77V124.698L462.227 1M462.227 296V1M481.625 5.51708L485.782 9.68669L483.704 15.2462L477.815 16.9835L473.312 13.1614V6.90695L476.429 4.47468L480.933 5.51708M558.871 109.062L573.766 81.265L566.839 38.179L535.317 19.0683L508.298 22.1955L483.704 38.179L469.155 81.265L483.704 101.418L504.487 119.834L527.696 109.062H558.871ZM595.243 124.698H605.288L619.837 113.232V95.5112L605.288 81.265H595.243L582.08 88.2144L573.766 109.062L582.08 119.834L595.243 124.698ZM546.055 269.94L595.243 255.346L619.837 224.422L623.647 179.598L605.288 143.809L566.839 119.834L520.422 124.698L483.704 162.572L477.469 203.226L487.514 233.456L511.415 259.168L546.055 269.94ZM619.837 5.86455V11.0766L614.641 15.2462L609.099 11.0766V5.86455H619.837Z" stroke="black" stroke-width="2"/>
<path d="M615.432 273.654L619.926 271.924L621.654 270.886L622 268.119L621.654 265.351L618.889 261.891L615.432 260.854L611.283 262.929L609.209 267.427L611.283 272.27L615.432 273.654Z" fill="white"/>
<path d="M485.1 264.313L485.445 267.773L483.717 271.924L479.223 274L476.111 272.616L473 269.848L473.346 265.005L476.457 261.891L481.297 261.2L485.1 264.313Z" fill="white"/>
<path d="M553.55 250.475L574.638 243.556L590.886 230.063L602.295 211.035L605.752 191.662L602.295 171.25L589.849 154.298L565.995 139.076L542.833 137L516.559 146.687L498.237 169.52L494.78 199.965L508.608 230.063L530.733 245.631L553.55 250.475Z" fill="white"/>
<path d="M615.432 273.654L619.926 271.924L621.654 270.886L622 268.119L621.654 265.351L618.889 261.891L615.432 260.854L611.283 262.929L609.209 267.427L611.283 272.27L615.432 273.654Z" stroke="black" stroke-width="2"/>
<path d="M485.1 264.313L485.445 267.773L483.717 271.924L479.223 274L476.111 272.616L473 269.848L473.346 265.005L476.457 261.891L481.297 261.2L485.1 264.313Z" stroke="black" stroke-width="2"/>
<path d="M553.55 250.475L574.638 243.556L590.886 230.063L602.295 211.035L605.752 191.662L602.295 171.25L589.849 154.298L565.995 139.076L542.833 137L516.559 146.687L498.237 169.52L494.78 199.965L508.608 230.063L530.733 245.631L553.55 250.475Z" stroke="black" stroke-width="2"/>
</svg>
