<svg width="1440" height="988" viewBox="0 0 1440 988" fill="none" xmlns="http://www.w3.org/2000/svg">
<path d="M1410 123.5V189.5H1413.5V126L1434 108.5L1429.5 104L1410 123.5Z" fill="black" stroke="black" stroke-width="3"/>
<path d="M112 879.5V945.5H108.5V882L88 864.5L92.5 860L112 879.5Z" fill="black" stroke="black" stroke-width="3"/>
<path d="M585 915.5V981.5H581.5V918L561 900.5L565.5 896L585 915.5Z" fill="black" stroke="black" stroke-width="3"/>
<path d="M680 901.5V967.5H676.5V904L656 886.5L660.5 882L680 901.5Z" fill="black" stroke="black" stroke-width="3"/>
<path d="M1416 836.5V902.5H1412.5V839L1392 821.5L1396.5 817L1416 836.5Z" fill="black" stroke="black" stroke-width="3"/>
<path d="M1100 926V860H1103.5V923.5L1124 941L1119.5 945.5L1100 926Z" fill="black" stroke="black" stroke-width="3"/>
<path d="M1002 966V900H1005.5V963.5L1026 981L1021.5 985.5L1002 966Z" fill="black" stroke="black" stroke-width="3"/>
<path d="M428 862V796H431.5V859.5L452 877L447.5 881.5L428 862Z" fill="black" stroke="black" stroke-width="3"/>
<path d="M300.1 941L304 937.5L286.5 926V865.198V859H229.5V868V929L245 941L249.5 937.5L235.241 927.802V865.198H280.984C280.756 883.697 280.438 927.802 280.984 927.802C281.667 927.802 300.1 941 300.1 941Z" fill="black"/>
<path d="M235.241 865.198H280.984C280.756 883.697 280.438 927.802 280.984 927.802C281.667 927.802 300.1 941 300.1 941C300.1 941 300.1 941 304 937.5L286.5 926V865.198V859M235.241 865.198L286.5 859M235.241 865.198V927.802L249.5 937.5L245 941L229.5 929V868V859H286.5" stroke="black" stroke-width="3"/>
<path d="M889.1 880L893 876.5L875.5 865V804.198V798H818.5V807V868L834 880L838.5 876.5L824.241 866.802V804.198H869.984C869.756 822.697 869.438 866.802 869.984 866.802C870.667 866.802 889.1 880 889.1 880Z" fill="black"/>
<path d="M824.241 804.198H869.984C869.756 822.697 869.438 866.802 869.984 866.802C870.667 866.802 889.1 880 889.1 880C889.1 880 889.1 880 893 876.5L875.5 865V804.198V798M824.241 804.198L875.5 798M824.241 804.198V866.802L838.5 876.5L834 880L818.5 868V807V798H875.5" stroke="black" stroke-width="3"/>
<path d="M1312.5 961L1317 957.5L1303.5 947.802V885.198V882H1248.5V888V947.802L1263 961L1266.5 957.5L1252.24 947.802V885.198H1299L1300.5 947.802L1312.5 961Z" fill="black"/>
<path d="M1252.24 885.198H1299C1300.5 947.802 1300.5 947.802 1300.5 947.802L1312.5 961C1312.5 961 1312.5 961 1317 957.5L1303.5 947.802V885.198V882M1252.24 885.198L1303.5 882M1252.24 885.198V947.802L1266.5 957.5L1263 961L1248.5 947.802V888V882H1303.5" stroke="black" stroke-width="3"/>
<path d="M1440 839L3.96968e-05 839.985M1440 839L3.96968e-05 839.985M1440 839L3.96968e-05 839.985" stroke="black" stroke-width="3"/>
<path d="M1440 859L3.71933e-05 859M1440 859L3.71933e-05 859M1440 859L3.71933e-05 859" stroke="black" stroke-width="3"/>
<path d="M1440 903L3.71933e-05 903M1440 903L3.71933e-05 903M1440 903L3.71933e-05 903" stroke="black" stroke-width="3"/>
<path d="M1440 925L0.000348687 926" stroke="black" stroke-width="3"/>
<path d="M1440 882L3.71933e-05 882M1440 882L3.71933e-05 882M1440 882L3.71933e-05 882" stroke="black" stroke-width="3"/>
<path d="M1310 23.5V89.5H1313.5V26L1334 8.5L1329.5 4L1310 23.5Z" fill="black" stroke="black" stroke-width="3"/>
<path d="M837 122.5V188.5H840.5V125L861 107.5L856.5 103L837 122.5Z" fill="black" stroke="black" stroke-width="3"/>
<path d="M742 108.5V174.5H745.5V111L766 93.5L761.5 89L742 108.5Z" fill="black" stroke="black" stroke-width="3"/>
<path d="M18 22.5V88.5H21.5V25L42 7.5L37.5 3L18 22.5Z" fill="black" stroke="black" stroke-width="3"/>
<path d="M321 97V31H317.5V94.5L297 112L301.5 116.5L321 97Z" fill="black" stroke="black" stroke-width="3"/>
<path d="M420 173V107H416.5V170.5L396 188L400.5 192.5L420 173Z" fill="black" stroke="black" stroke-width="3"/>
<path d="M994 69V3H990.5V66.5L970 84L974.5 88.5L994 69Z" fill="black" stroke="black" stroke-width="3"/>
<path d="M1121.9 148L1118 144.5L1135.5 133V72.1977V66H1192.5V75V136L1177 148L1172.5 144.5L1186.76 134.802V72.1977H1141.02C1141.24 90.6971 1141.56 134.802 1141.02 134.802C1140.33 134.802 1121.9 148 1121.9 148Z" fill="black"/>
<path d="M1186.76 72.1977H1141.02C1141.24 90.6971 1141.56 134.802 1141.02 134.802C1140.33 134.802 1121.9 148 1121.9 148C1121.9 148 1121.9 148 1118 144.5L1135.5 133V72.1977V66M1186.76 72.1977L1135.5 66M1186.76 72.1977V134.802L1172.5 144.5L1177 148L1192.5 136V75V66H1135.5" stroke="black" stroke-width="3"/>
<path d="M532.9 87L529 83.5L546.5 72V11.1977V5H603.5V14V75L588 87L583.5 83.5L597.759 73.8023V11.1977H552.016C552.244 29.6971 552.562 73.8023 552.016 73.8023C551.333 73.8023 532.9 87 532.9 87Z" fill="black"/>
<path d="M597.759 11.1977H552.016C552.244 29.6971 552.562 73.8023 552.016 73.8023C551.333 73.8023 532.9 87 532.9 87C532.9 87 532.9 87 529 83.5L546.5 72V11.1977V5M597.759 11.1977L546.5 5M597.759 11.1977V73.8023L583.5 83.5L588 87L603.5 75V14V5H546.5" stroke="black" stroke-width="3"/>
<path d="M112.5 110L108 106.5L121.5 96.8023V34.1977V31H176.5V37V96.8023L162 110L158.5 106.5L172.759 96.8023V34.1977H126L124.5 96.8023L112.5 110Z" fill="black"/>
<path d="M172.759 34.1977H126C124.5 96.8023 124.5 96.8023 124.5 96.8023L112.5 110C112.5 110 112.5 110 108 106.5L121.5 96.8023V34.1977V31M172.759 34.1977L121.5 31M172.759 34.1977V96.8023L158.5 106.5L162 110L176.5 96.8023V37V31H121.5" stroke="black" stroke-width="3"/>
<path d="M0 46L1440 46.9839M0 46L1440 46.9839M0 46L1440 46.9839" stroke="black" stroke-width="3"/>
<path d="M0 66L1440 67M0 66L1440 67M0 66L1440 67" stroke="black" stroke-width="3"/>
<path d="M0 110L1440 110M0 110L1440 110M0 110L1440 110" stroke="black" stroke-width="3"/>
<path d="M0 132L1440 132" stroke="black" stroke-width="3"/>
<path d="M0 90L1440 89M0 90L1440 89M0 90L1440 89" stroke="black" stroke-width="3"/>
<path d="M1211 505V132H1280V505H1211Z" stroke="black" stroke-width="2"/>
<path d="M1323 505V132H1392V505H1323Z" stroke="black" stroke-width="2"/>
<path d="M1280 420V132H1323V420H1280Z" fill="black" stroke="black" stroke-width="2"/>
<path d="M44 505V132H113V505H44Z" stroke="black" stroke-width="2"/>
<path d="M156 505V132H225V505H156Z" stroke="black" stroke-width="2"/>
<path d="M113 420V132H156V420H113Z" fill="black" stroke="black" stroke-width="2"/>
<circle cx="127.5" cy="127.5" r="126.5" transform="matrix(-1 0 0 1 1429.7 584)" fill="black" stroke="black" stroke-width="2"/>
<circle cx="93.5" cy="93.5" r="92.5" transform="matrix(-1 0 0 1 1217 652)" fill="white" stroke="black" stroke-width="2"/>
<circle cx="41.907" cy="41.907" r="41.907" transform="matrix(-1 0 0 1 1344.3 669.791)" fill="white"/>
<circle cx="27.8721" cy="27.8721" r="27.8721" transform="matrix(-1 0 0 1 1151.37 717.628)" fill="black"/>
<circle cx="5.93023" cy="5.93023" r="5.93023" transform="matrix(-1 0 0 1 1308.33 705.767)" fill="black"/>
<circle cx="5.93023" cy="5.93023" r="5.93023" transform="matrix(-1 0 0 1 1129.23 739.767)" fill="white"/>
<path d="M1351.42 694.895C1341.14 672.361 1336.79 669.395 1318.01 663.07" stroke="white" stroke-width="2"/>
<path d="M1357.74 693.907C1349.44 667.023 1340.11 662.872 1315.84 655.36" stroke="white" stroke-width="2"/>
<path d="M1384.28 693.709C1366.09 652.791 1362.54 651.012 1334.81 635.395" stroke="white" stroke-width="2"/>
<path d="M1390.16 686.395C1368.82 636.186 1365.26 643.302 1329.48 623.93" stroke="white" stroke-width="2"/>
<path d="M1404 688.768C1382.66 638.558 1386.22 643.698 1339.57 618.791" stroke="white" stroke-width="2"/>
<path d="M1411.91 682.047C1390.57 631.837 1394.13 636.977 1347.47 612.07" stroke="white" stroke-width="2"/>
<path d="M1372.37 686.198C1359.94 656.744 1349.47 651.802 1321.17 641.721" stroke="white" stroke-width="2"/>
<path d="M1367.43 697.465C1359.52 669 1343.91 657.535 1324.73 650.814" stroke="white" stroke-width="2"/>
<path d="M1252.07 728.895C1262.35 751.43 1266.7 754.395 1285.48 760.721" stroke="white" stroke-width="2"/>
<path d="M1245.74 729.884C1254.05 756.767 1263.38 760.919 1287.65 768.43" stroke="white" stroke-width="2"/>
<path d="M1219.21 730.081C1237.39 771 1240.95 772.779 1268.67 788.395" stroke="white" stroke-width="2"/>
<path d="M1213.33 737.395C1234.66 787.605 1238.23 780.488 1274.01 799.86" stroke="white" stroke-width="2"/>
<path d="M1199.49 735.023C1220.83 785.233 1217.27 780.093 1263.92 805" stroke="white" stroke-width="2"/>
<path d="M1191.58 741.744C1212.92 791.953 1209.36 786.814 1256.01 811.721" stroke="white" stroke-width="2"/>
<path d="M1231.12 737.593C1243.55 767.047 1254.02 771.988 1282.31 782.07" stroke="white" stroke-width="2"/>
<path d="M1236.06 726.326C1243.96 754.791 1259.58 766.256 1278.76 772.977" stroke="white" stroke-width="2"/>
<path d="M1090.67 754.453C1098.8 772.287 1102.25 774.634 1117.11 779.64" stroke="black" stroke-width="2"/>
<path d="M1085.66 755.235C1092.23 776.512 1099.62 779.797 1118.83 785.742" stroke="black" stroke-width="2"/>
<path d="M1064.66 755.391C1079.06 787.776 1081.87 789.184 1103.81 801.543" stroke="black" stroke-width="2"/>
<path d="M1060.01 761.18C1076.89 800.917 1079.72 795.285 1108.03 810.617" stroke="black" stroke-width="2"/>
<path d="M1049.05 759.302C1065.94 799.04 1063.13 794.972 1100.05 814.684" stroke="black" stroke-width="2"/>
<path d="M1042.8 764.622C1059.69 804.359 1056.87 800.291 1093.79 820.003" stroke="black" stroke-width="2"/>
<path d="M1074.09 761.336C1083.92 784.647 1092.21 788.558 1114.61 796.536" stroke="black" stroke-width="2"/>
<path d="M1078 752.419C1084.26 774.947 1096.61 784.021 1111.79 789.34" stroke="black" stroke-width="2"/>
<path d="M1155.94 739.69C1147.8 721.856 1144.36 719.509 1129.5 714.503" stroke="black" stroke-width="2"/>
<path d="M1160.94 738.908C1154.37 717.631 1146.98 714.346 1127.78 708.401" stroke="black" stroke-width="2"/>
<path d="M1181.94 738.752C1167.55 706.367 1164.73 704.959 1142.79 692.6" stroke="black" stroke-width="2"/>
<path d="M1186.6 732.963C1169.71 693.226 1166.89 698.858 1138.57 683.526" stroke="black" stroke-width="2"/>
<path d="M1197.55 734.84C1180.66 695.103 1183.48 699.171 1146.56 679.458" stroke="black" stroke-width="2"/>
<path d="M1203.81 729.522C1186.92 689.784 1189.74 693.852 1152.81 674.14" stroke="black" stroke-width="2"/>
<path d="M1172.52 732.807C1162.68 709.496 1154.39 705.585 1132 697.606" stroke="black" stroke-width="2"/>
<path d="M1168.61 741.724C1162.35 719.196 1149.99 710.122 1134.82 704.803" stroke="black" stroke-width="2"/>
<circle cx="135.5" cy="709.5" r="126.5" fill="black" stroke="black" stroke-width="2"/>
<circle cx="314.198" cy="743.5" r="92.5" fill="white" stroke="black" stroke-width="2"/>
<circle cx="135.302" cy="709.698" r="41.907" fill="white"/>
<circle cx="314.198" cy="743.5" r="27.8721" fill="black"/>
<circle cx="135.302" cy="709.698" r="5.93023" fill="black"/>
<circle cx="314.395" cy="743.698" r="5.93023" fill="white"/>
<path d="M86.2791 692.895C96.5581 670.361 100.907 667.395 119.686 661.07" stroke="white" stroke-width="2"/>
<path d="M79.9535 691.907C88.2558 665.023 97.5905 660.872 121.86 653.36" stroke="white" stroke-width="2"/>
<path d="M53.4178 691.709C71.6038 650.791 75.162 649.012 102.884 633.395" stroke="white" stroke-width="2"/>
<path d="M47.5346 684.395C68.874 634.186 72.4419 641.302 108.221 621.93" stroke="white" stroke-width="2"/>
<path d="M33.6974 686.768C55.0368 636.558 51.4787 641.698 98.1298 616.791" stroke="white" stroke-width="2"/>
<path d="M25.7904 680.047C47.1298 629.837 43.5717 634.977 90.2228 610.07" stroke="white" stroke-width="2"/>
<path d="M65.3256 684.198C77.7546 654.744 88.2314 649.802 116.523 639.721" stroke="white" stroke-width="2"/>
<path d="M70.2674 695.465C78.1744 667 93.7907 655.535 112.965 648.814" stroke="white" stroke-width="2"/>
<path d="M185.628 726.895C175.349 749.43 171 752.395 152.221 758.721" stroke="white" stroke-width="2"/>
<path d="M191.954 727.884C183.651 754.767 174.317 758.919 150.047 766.43" stroke="white" stroke-width="2"/>
<path d="M218.489 728.081C200.303 769 196.745 770.779 169.023 786.395" stroke="white" stroke-width="2"/>
<path d="M224.373 735.395C203.033 785.605 199.465 778.488 163.686 797.86" stroke="white" stroke-width="2"/>
<path d="M238.21 733.023C216.87 783.233 220.429 778.093 173.777 803" stroke="white" stroke-width="2"/>
<path d="M246.117 739.744C224.777 789.953 228.336 784.814 181.684 809.721" stroke="white" stroke-width="2"/>
<path d="M206.582 735.593C194.153 765.047 183.676 769.988 155.384 780.07" stroke="white" stroke-width="2"/>
<path d="M201.64 724.326C193.733 752.791 178.116 764.256 158.942 770.977" stroke="white" stroke-width="2"/>
<path d="M347.028 752.453C338.893 770.287 335.451 772.634 320.589 777.64" stroke="black" stroke-width="2"/>
<path d="M352.035 753.235C345.464 774.512 338.076 777.797 318.868 783.742" stroke="black" stroke-width="2"/>
<path d="M373.036 753.391C358.643 785.776 355.827 787.184 333.887 799.543" stroke="black" stroke-width="2"/>
<path d="M377.692 759.18C360.803 798.917 357.98 793.285 329.663 808.617" stroke="black" stroke-width="2"/>
<path d="M388.643 757.302C371.754 797.04 374.57 792.972 337.649 812.684" stroke="black" stroke-width="2"/>
<path d="M394.901 762.622C378.012 802.359 380.828 798.291 343.907 818.003" stroke="black" stroke-width="2"/>
<path d="M363.612 759.336C353.775 782.647 345.483 786.558 323.092 794.536" stroke="black" stroke-width="2"/>
<path d="M359.7 750.419C353.443 772.947 341.083 782.021 325.908 787.34" stroke="black" stroke-width="2"/>
<path d="M281.762 737.69C289.898 719.856 293.339 717.509 308.202 712.503" stroke="black" stroke-width="2"/>
<path d="M276.756 736.908C283.327 715.631 290.715 712.346 309.923 706.401" stroke="black" stroke-width="2"/>
<path d="M255.755 736.752C270.148 704.367 272.964 702.959 294.904 690.6" stroke="black" stroke-width="2"/>
<path d="M251.099 730.963C267.987 691.226 270.811 696.858 299.128 681.526" stroke="black" stroke-width="2"/>
<path d="M240.148 732.84C257.036 693.103 254.22 697.171 291.141 677.458" stroke="black" stroke-width="2"/>
<path d="M233.89 727.522C250.778 687.784 247.962 691.852 284.884 672.14" stroke="black" stroke-width="2"/>
<path d="M265.179 730.807C275.016 707.496 283.308 703.585 305.699 695.606" stroke="black" stroke-width="2"/>
<path d="M269.09 739.724C275.348 717.196 287.707 708.122 302.883 702.803" stroke="black" stroke-width="2"/>
</svg>
